# xmcd
#
# Track frame offsets:
#	150
#	11936
#	27157
#	43025
#	60308
#	72860
#	85577
#	101292
#	120490
#	133802
#	152592
#	168427
#	183801
#
# Disc length: 2602 seconds
#
# Revision: 0
# Processed by: cddbd v1.4PL0 Copyright (c) Steve Scherf et al.
# Submitted via: audiograbber 1.81.02
#
DISCID=9a0a280d
DTITLE=Riverside Blues Band - Gone fishin'
DYEAR=2003
DGENRE=Blues
TTITLE0=Troubles no more
TTITLE1=Crazy
TTITLE2=747
TTITLE3=Worried live blues
TTITLE4=Long distance runner
TTITLE5=Goin' down slow
TTITLE6=Mr. Landlord
TTITLE7=Coffe pot
TTITLE8=She's alright
TTITLE9=Jealous man
TTITLE10=Goin' down to Texas
TTITLE11=Lord, keep your child
TTITLE12=Gone fishin'
EXTD=
EXTT0=
EXTT1=
EXTT2=
EXTT3=
EXTT4=
EXTT5=
EXTT6=
EXTT7=
EXTT8=
EXTT9=
EXTT10=
EXTT11=
EXTT12=
PLAYORDER=
